<mxfile host="Electron" modified="2023-07-03T09:36:34.585Z" agent="Mozilla/5.0 (Windows NT 10.0; Win64; x64) AppleWebKit/537.36 (KHTML, like Gecko) draw.io/21.2.1 Chrome/112.0.5615.87 Electron/24.1.2 Safari/537.36" etag="xWeHWzXxOh-S-mPhGQ74" version="21.2.1" type="device">
  <diagram name="第 1 页" id="Ddp_4GvIFCaKqRczuAh4">
    <mxGraphModel dx="1418" dy="820" grid="1" gridSize="10" guides="1" tooltips="1" connect="1" arrows="1" fold="1" page="1" pageScale="1" pageWidth="827" pageHeight="1169" math="0" shadow="0">
      <root>
        <mxCell id="0" />
        <mxCell id="1" parent="0" />
        <mxCell id="lxFPnvU3_qxI2LDUMw3F-1" value="" style="fillColor=#DEE8FF;strokeColor=none;" parent="1" vertex="1">
          <mxGeometry x="100" y="180" width="580" height="180" as="geometry" />
        </mxCell>
        <mxCell id="QHQSiwjJCwd8MkDrQ3MY-3" value="Create .proto file to define data&lt;br style=&quot;font-size: 13px;&quot;&gt;structure" style="rounded=0;whiteSpace=wrap;html=1;fontSize=13;" vertex="1" parent="1">
          <mxGeometry x="110" y="190" width="110" height="50" as="geometry" />
        </mxCell>
        <mxCell id="QHQSiwjJCwd8MkDrQ3MY-4" value="" style="endArrow=classic;html=1;exitX=0.5;exitY=1;exitDx=0;exitDy=0;entryX=0.5;entryY=0;entryDx=0;entryDy=0;" edge="1" parent="1" source="QHQSiwjJCwd8MkDrQ3MY-3" target="QHQSiwjJCwd8MkDrQ3MY-8">
          <mxGeometry width="50" height="50" relative="1" as="geometry">
            <mxPoint x="270" y="240" as="sourcePoint" />
            <mxPoint x="260" y="215" as="targetPoint" />
          </mxGeometry>
        </mxCell>
        <mxCell id="QHQSiwjJCwd8MkDrQ3MY-5" value="Generate code using the protoc compiler" style="rounded=0;whiteSpace=wrap;html=1;fontSize=13;" vertex="1" parent="1">
          <mxGeometry x="260" y="190" width="110" height="50" as="geometry" />
        </mxCell>
        <mxCell id="QHQSiwjJCwd8MkDrQ3MY-6" value="Compile PB code with your project code" style="rounded=0;whiteSpace=wrap;html=1;fontSize=13;" vertex="1" parent="1">
          <mxGeometry x="410" y="190" width="110" height="50" as="geometry" />
        </mxCell>
        <mxCell id="QHQSiwjJCwd8MkDrQ3MY-7" value="Use PB classes to serialize, share, &amp;amp; deserialize data" style="rounded=0;whiteSpace=wrap;html=1;fontSize=13;" vertex="1" parent="1">
          <mxGeometry x="560" y="190" width="110" height="50" as="geometry" />
        </mxCell>
        <mxCell id="QHQSiwjJCwd8MkDrQ3MY-8" value="&lt;font style=&quot;font-size: 13px;&quot;&gt;.proto file&lt;/font&gt;" style="shape=document;whiteSpace=wrap;html=1;boundedLbl=1;fontSize=13;" vertex="1" parent="1">
          <mxGeometry x="110" y="289" width="110" height="60" as="geometry" />
        </mxCell>
        <mxCell id="QHQSiwjJCwd8MkDrQ3MY-9" value="" style="endArrow=classic;html=1;exitX=1;exitY=0.412;exitDx=0;exitDy=0;exitPerimeter=0;entryX=0;entryY=0.5;entryDx=0;entryDy=0;" edge="1" parent="1" source="QHQSiwjJCwd8MkDrQ3MY-8" target="QHQSiwjJCwd8MkDrQ3MY-5">
          <mxGeometry relative="1" as="geometry">
            <mxPoint x="150" y="320" as="sourcePoint" />
            <mxPoint x="250" y="320" as="targetPoint" />
            <Array as="points">
              <mxPoint x="240" y="304" />
              <mxPoint x="240" y="215" />
            </Array>
          </mxGeometry>
        </mxCell>
        <mxCell id="QHQSiwjJCwd8MkDrQ3MY-10" value="Input" style="edgeLabel;resizable=0;html=1;align=center;verticalAlign=middle;labelBackgroundColor=default;fontSize=13;" connectable="0" vertex="1" parent="QHQSiwjJCwd8MkDrQ3MY-9">
          <mxGeometry relative="1" as="geometry">
            <mxPoint y="0.9999999999999987" as="offset" />
          </mxGeometry>
        </mxCell>
        <mxCell id="QHQSiwjJCwd8MkDrQ3MY-11" value=".cc, .java, .py, or other source files" style="shape=document;whiteSpace=wrap;html=1;boundedLbl=1;fontSize=13;" vertex="1" parent="1">
          <mxGeometry x="260" y="289" width="110" height="60" as="geometry" />
        </mxCell>
        <mxCell id="QHQSiwjJCwd8MkDrQ3MY-12" value="Output" style="endArrow=classic;html=1;exitX=0.5;exitY=1;exitDx=0;exitDy=0;entryX=0.5;entryY=0;entryDx=0;entryDy=0;fontSize=13;" edge="1" parent="1" source="QHQSiwjJCwd8MkDrQ3MY-5" target="QHQSiwjJCwd8MkDrQ3MY-11">
          <mxGeometry width="50" height="50" relative="1" as="geometry">
            <mxPoint x="175" y="250" as="sourcePoint" />
            <mxPoint x="175" y="289" as="targetPoint" />
          </mxGeometry>
        </mxCell>
        <mxCell id="QHQSiwjJCwd8MkDrQ3MY-13" value="" style="endArrow=classic;html=1;exitX=1;exitY=0.412;exitDx=0;exitDy=0;exitPerimeter=0;entryX=0;entryY=0.5;entryDx=0;entryDy=0;" edge="1" parent="1">
          <mxGeometry relative="1" as="geometry">
            <mxPoint x="370" y="304.72" as="sourcePoint" />
            <mxPoint x="410" y="216" as="targetPoint" />
            <Array as="points">
              <mxPoint x="390" y="305" />
              <mxPoint x="390" y="216" />
            </Array>
          </mxGeometry>
        </mxCell>
        <mxCell id="QHQSiwjJCwd8MkDrQ3MY-14" value="Input" style="edgeLabel;resizable=0;html=1;align=center;verticalAlign=middle;fontSize=13;" connectable="0" vertex="1" parent="QHQSiwjJCwd8MkDrQ3MY-13">
          <mxGeometry relative="1" as="geometry">
            <mxPoint y="0.9999999999999987" as="offset" />
          </mxGeometry>
        </mxCell>
        <mxCell id="QHQSiwjJCwd8MkDrQ3MY-15" value="Compiled classes" style="shape=document;whiteSpace=wrap;html=1;boundedLbl=1;fontSize=13;" vertex="1" parent="1">
          <mxGeometry x="410" y="289" width="110" height="60" as="geometry" />
        </mxCell>
        <mxCell id="QHQSiwjJCwd8MkDrQ3MY-16" value="Output" style="endArrow=classic;html=1;exitX=0.5;exitY=1;exitDx=0;exitDy=0;entryX=0.5;entryY=0;entryDx=0;entryDy=0;fontSize=13;" edge="1" parent="1" source="QHQSiwjJCwd8MkDrQ3MY-6" target="QHQSiwjJCwd8MkDrQ3MY-15">
          <mxGeometry width="50" height="50" relative="1" as="geometry">
            <mxPoint x="325" y="250" as="sourcePoint" />
            <mxPoint x="325" y="289" as="targetPoint" />
            <Array as="points">
              <mxPoint x="465" y="250" />
            </Array>
          </mxGeometry>
        </mxCell>
        <mxCell id="QHQSiwjJCwd8MkDrQ3MY-17" value="" style="endArrow=classic;html=1;exitX=1;exitY=0.412;exitDx=0;exitDy=0;exitPerimeter=0;entryX=0;entryY=0.5;entryDx=0;entryDy=0;" edge="1" parent="1">
          <mxGeometry relative="1" as="geometry">
            <mxPoint x="520" y="298.72" as="sourcePoint" />
            <mxPoint x="560" y="210" as="targetPoint" />
            <Array as="points">
              <mxPoint x="540" y="299" />
              <mxPoint x="540" y="210" />
            </Array>
          </mxGeometry>
        </mxCell>
        <mxCell id="QHQSiwjJCwd8MkDrQ3MY-18" value="Input" style="edgeLabel;resizable=0;html=1;align=center;verticalAlign=middle;fontSize=13;" connectable="0" vertex="1" parent="QHQSiwjJCwd8MkDrQ3MY-17">
          <mxGeometry relative="1" as="geometry">
            <mxPoint y="0.9999999999999987" as="offset" />
          </mxGeometry>
        </mxCell>
      </root>
    </mxGraphModel>
  </diagram>
</mxfile>
